<svg xmlns="http://www.w3.org/2000/svg" viewBox="0 0 100 100">
  <defs>
    <linearGradient id="compact-gradient" x1="0%" y1="0%" x2="100%" y2="100%">
      <stop offset="0%" style="stop-color:#7C3AED"/>
      <stop offset="100%" style="stop-color:#3B82F6"/>
    </linearGradient>
  </defs>
  <path d="M20,20 L20,80 L50,80 C65,80 72,73 72,62 C72,55 67,50 62,50 C67,47 70,42 70,37 C70,27 62,20 52,20 Z M35,35 L50,35 C57,35 60,38 60,42 C60,46 57,49 50,49 L35,49 Z M35,59 L52,59 C60,59 62,62 62,66 C62,70 60,73 52,73 L35,73 Z" fill="url(#compact-gradient)"/>
  <rect x="80" y="25" width="8" height="8" fill="#A78BFA" opacity="0.8"/>
  <rect x="85" y="40" width="6" height="6" fill="#60A5FA" opacity="0.7"/>
</svg>
