<svg xmlns="http://www.w3.org/2000/svg" viewBox="0 0 800 200">
  <defs>
    <linearGradient id="logo-gradient" x1="0%" y1="0%" x2="100%" y2="100%">
      <stop offset="0%" style="stop-color:#7C3AED;stop-opacity:1" />
      <stop offset="50%" style="stop-color:#8B5CF6;stop-opacity:1" />
      <stop offset="100%" style="stop-color:#3B82F6;stop-opacity:1" />
    </linearGradient>
  </defs>
  
  <!-- B Letter with pixels -->
  <path d="M50,40 L50,160 L110,160 C130,160 145,145 145,125 C145,110 135,100 125,100 C135,95 140,85 140,75 C140,55 125,40 105,40 Z M70,60 L100,60 C115,60 120,65 120,75 C120,85 115,90 100,90 L70,90 Z M70,110 L105,110 C120,110 125,115 125,125 C125,135 120,140 105,140 L70,140 Z" fill="url(#logo-gradient)"/>
  
  <!-- Pixels -->
  <rect x="160" y="50" width="15" height="15" fill="#A78BFA" opacity="0.8"/>
  <rect x="180" y="40" width="15" height="15" fill="#8B5CF6" opacity="0.9"/>
  <rect x="200" y="50" width="12" height="12" fill="#7C3AED" opacity="0.7"/>
  <rect x="165" y="75" width="12" height="12" fill="#3B82F6" opacity="0.8"/>
  <rect x="185" y="70" width="10" height="10" fill="#60A5FA" opacity="0.6"/>
  <rect x="195" y="85" width="8" height="8" fill="#93C5FD" opacity="0.5"/>
  
  <!-- BestSoft Text -->
  <text x="240" y="110" font-family="'Inter', 'Roboto', sans-serif" font-size="48" font-weight="600" fill="#5B21B6">Best</text>
  <text x="395" y="110" font-family="'Inter', 'Roboto', sans-serif" font-size="48" font-weight="600" fill="#3B82F6">Soft</text>
  
  <!-- Subtitle -->
  <text x="245" y="140" font-family="'Inter', 'Roboto', sans-serif" font-size="18" font-weight="400" fill="#94A3B8">Software Solutions</text>
</svg>
